<svg width="24" height="24" viewBox="0 0 24 24" fill="none" xmlns="http://www.w3.org/2000/svg">
  <path d="M7.2 2.9V6.7" stroke="black" stroke-width="2.45" stroke-linecap="round"/>
  <path d="M15.8 2.9V6.7" stroke="black" stroke-width="2.45" stroke-linecap="round"/>
  <path d="M4.1 8.45H8.9" stroke="black" stroke-width="2.45" stroke-linecap="round"/>
  <path d="M4.1 14.1V8.55C4.1 6.7 5.6 5.2 7.45 5.2H18.05C19.9 5.2 21.4 6.7 21.4 8.55V10.6" stroke="black" stroke-width="2.45" stroke-linecap="round" stroke-linejoin="round"/>
  <path d="M4.1 14.1V17.55C4.1 19.4 5.6 20.9 7.45 20.9H10.25" stroke="black" stroke-width="2.45" stroke-linecap="round" stroke-linejoin="round"/>
  <path d="M11.4 8.95V12.35H14.8" stroke="black" stroke-width="2.45" stroke-linecap="round" stroke-linejoin="round"/>
  <path d="M11.55 12.15C12.55 10.95 14.05 10.2 15.75 10.2C18.15 10.2 20.15 11.7 20.95 13.85" stroke="black" stroke-width="2.45" stroke-linecap="round"/>
  <path d="M20.6 19.05V15.65H17.2" stroke="black" stroke-width="2.45" stroke-linecap="round" stroke-linejoin="round"/>
  <path d="M20.45 15.85C19.45 17.05 17.95 17.8 16.25 17.8C13.85 17.8 11.85 16.3 11.05 14.15" stroke="black" stroke-width="2.45" stroke-linecap="round"/>
</svg>
