<svg width="24" height="24" viewBox="0 0 24 24" fill="none" xmlns="http://www.w3.org/2000/svg">
  <path d="M7.2 2.8V6.5" stroke="black" stroke-width="1.9" stroke-linecap="round"/>
  <path d="M15.8 2.8V6.5" stroke="black" stroke-width="1.9" stroke-linecap="round"/>
  <path d="M4.4 8.4H9.3" stroke="black" stroke-width="1.9" stroke-linecap="round"/>
  <path d="M4.4 13.2V8.8C4.4 6.9 5.9 5.4 7.8 5.4H18.1C20 5.4 21.5 6.9 21.5 8.8V10.6" stroke="black" stroke-width="1.9" stroke-linecap="round" stroke-linejoin="round"/>
  <path d="M4.4 13.2V17.25C4.4 19.1 5.9 20.6 7.8 20.6H10.1" stroke="black" stroke-width="1.9" stroke-linecap="round" stroke-linejoin="round"/>
  <path d="M20.25 13.2C19.15 11.3 17.25 10.2 15.05 10.2C13.25 10.2 11.6 10.9 10.4 12.15" stroke="black" stroke-width="1.9" stroke-linecap="round"/>
  <path d="M12.35 9.85L10.05 12.15L12.35 14.45" stroke="black" stroke-width="1.9" stroke-linecap="round" stroke-linejoin="round"/>
  <path d="M10.75 15.05C11.85 16.95 13.75 18.05 15.95 18.05C17.75 18.05 19.4 17.35 20.6 16.1" stroke="black" stroke-width="1.9" stroke-linecap="round"/>
  <path d="M18.65 13.8L20.95 16.1L18.65 18.4" stroke="black" stroke-width="1.9" stroke-linecap="round" stroke-linejoin="round"/>
</svg>
