<svg preserveAspectRatio="none" width="100%" height="100%" overflow="visible" style="display: block;" viewBox="0 0 14 9" fill="none" xmlns="http://www.w3.org/2000/svg">
<path id="Vector" d="M6.9981 4.51007C7.30785 4.03537 7.61882 3.49859 7.9161 3.01351L9.75984 0C9.95373 0.421761 10.1472 0.910801 10.3301 1.34258L11.4262 3.92851L12.5029 6.46665C12.6738 6.86985 12.8821 7.32746 13.0378 7.73018L13.9995 7.72932L14 8.90156L9.04668 8.90166C9.03963 8.5179 9.04545 8.11337 9.04514 7.72818L9.77864 7.72932C9.7345 7.59267 9.67239 7.43886 9.62101 7.30278L9.26938 6.3644C9.20482 6.19182 9.12646 5.99618 9.07048 5.82283C8.98477 5.9451 8.89814 6.08051 8.81815 6.20668C8.22492 7.14268 7.5895 8.06248 6.99996 9C6.86155 8.7589 6.63144 8.43003 6.47323 8.18732L5.42625 6.57958C5.29954 6.38441 5.03598 6.00694 4.93581 5.81845C4.70786 6.45569 4.44982 7.09198 4.22222 7.73037C4.45628 7.72361 4.72198 7.72894 4.95851 7.72866L4.95836 8.90146L0.00576594 8.90156C-0.00639083 8.53591 0.00443787 8.09879 0.00452981 7.72837C0.32318 7.72723 0.641831 7.72809 0.960461 7.73075C1.19982 7.18633 1.43045 6.62846 1.6625 6.08032L2.76942 3.4714L3.71951 1.23187C3.89007 0.829761 4.07441 0.411612 4.23599 0.00811912C4.28337 0.0438837 4.79484 0.90231 4.85873 1.00687L6.31077 3.38277C6.52375 3.7317 6.80737 4.16121 6.9981 4.51007Z" fill="#28A975"/>
</svg>
