<svg preserveAspectRatio="none" width="100%" height="100%" overflow="visible" style="display: block;" viewBox="0 0 24 24" fill="none" xmlns="http://www.w3.org/2000/svg">
<g id="icon">
<path id="vector" fill-rule="evenodd" clip-rule="evenodd" d="M7 4.75C5.75736 4.75 4.75 5.75736 4.75 7C4.75 8.24264 5.75736 9.25 7 9.25C8.24264 9.25 9.25 8.24264 9.25 7C9.25 5.75736 8.24264 4.75 7 4.75ZM3.25 7C3.25 4.92893 4.92893 3.25 7 3.25C8.83807 3.25 10.3673 4.57242 10.6881 6.31774C10.7831 6.27425 10.8887 6.25 11 6.25H20C20.4142 6.25 20.75 6.58579 20.75 7C20.75 7.41421 20.4142 7.75 20 7.75H11C10.8887 7.75 10.7831 7.72576 10.6881 7.68226C10.3673 9.42758 8.83807 10.75 7 10.75C4.92893 10.75 3.25 9.07107 3.25 7ZM17 14.75C15.7574 14.75 14.75 15.7574 14.75 17C14.75 18.2426 15.7574 19.25 17 19.25C18.2426 19.25 19.25 18.2426 19.25 17C19.25 15.7574 18.2426 14.75 17 14.75ZM13.325 16.25C13.6725 14.5383 15.1858 13.25 17 13.25C19.0711 13.25 20.75 14.9289 20.75 17C20.75 19.0711 19.0711 20.75 17 20.75C15.1858 20.75 13.6725 19.4617 13.325 17.75H5C4.58579 17.75 4.25 17.4142 4.25 17C4.25 16.5858 4.58579 16.25 5 16.25H13.325Z" fill="var(--fill-0, black)"/>
</g>
</svg>
