<svg preserveAspectRatio="none" width="100%" height="100%" overflow="visible" style="display: block;" viewBox="0 0 25.6667 25.6668" fill="none" xmlns="http://www.w3.org/2000/svg">
<g id="vector">
<circle id="Ellipse 117" cx="12.8333" cy="12.8335" r="12.8333" fill="var(--fill-0, #FFD100)"/>
<g id="Vector">
<path d="M19.2173 11.7452C19.0549 12.2433 18.8125 12.7372 18.402 13.0591C17.9412 13.4205 17.3313 13.5185 16.7483 13.5482C16.466 13.5626 16.1789 13.5633 15.9061 13.4888C15.3413 13.3346 14.897 12.8648 14.6627 12.3242C14.4285 11.7836 14.3819 11.1781 14.4086 10.5888C14.4414 9.86338 14.593 9.11487 15.0298 8.53755C15.4667 7.96018 16.363 7.7491 17.0819 7.79332C18.0627 7.85367 18.7702 8.47196 19.1719 9.25741C19.559 10.0146 19.4811 10.9359 19.2173 11.7452ZM22.749 9.88872C22.7357 9.75692 22.5797 9.68425 22.4249 9.62792C22.1166 9.51561 21.4417 9.37883 20.8738 9.28901C20.77 9.07788 20.6229 8.83397 20.3966 8.52427C20.0692 8.0762 19.2914 7.34001 18.5196 6.8695C16.6686 5.74137 14.4899 5.54535 12.4355 6.2274C10.6765 6.81144 9.42525 7.69271 8.67248 9.20347C8.2598 10.0316 7.95452 11.3867 7.95452 11.3867C6.79053 11.1429 5.77376 10.6363 4.41482 9.87132C3.80093 11.5817 4.0462 14.046 5.09431 15.3916C6.35258 17.007 7.98894 17.7693 9.47143 18.0174C8.45168 18.2087 7.33796 18.4673 7.33796 18.4673C7.33796 18.4673 8.31355 19.3931 10.5817 19.9801C12.4978 20.476 14.0504 20.4554 14.9499 20.3676C15.967 20.2953 16.979 19.9598 17.9722 19.2963C20.3899 17.6807 21.7507 14.4514 21.4419 11.5164C21.9552 11.0086 22.4434 10.502 22.6641 10.1358C22.7147 10.0519 22.7567 9.9649 22.749 9.88872Z" fill="var(--fill-0, #333333)"/>
<path d="M18.8478 9.85036C18.8478 10.5972 18.4909 11.2026 18.0506 11.2026C17.6104 11.2026 17.2535 10.5972 17.2535 9.85036C17.2535 9.10358 17.6104 8.4982 18.0506 8.4982C18.4909 8.4982 18.8478 9.10358 18.8478 9.85036Z" fill="var(--fill-0, #333333)"/>
</g>
</g>
</svg>
