<svg preserveAspectRatio="none" width="100%" height="100%" overflow="visible" style="display: block;" viewBox="0 0 28 28" fill="none" xmlns="http://www.w3.org/2000/svg">
<g id="company logo" clip-path="url(#clip0_0_22)">
<circle id="Ellipse 118" cx="14" cy="14" r="14" fill="var(--fill-0, white)"/>
<path id="vector" fill-rule="evenodd" clip-rule="evenodd" d="M21.3333 3.61111C20.224 6.14029 17.6987 6.66667 14.0406 6.66667C13.648 6.66667 13.2594 6.66134 12.8837 6.65636C12.5207 6.65174 12.1777 6.64712 11.8415 6.64712C11.5425 6.64712 11.2415 6.64996 10.9444 6.66169C11.4573 5.54318 12.2744 4.78329 13.4389 4.32231C15.0615 3.68006 17.1715 3.67367 19.0331 3.66833C19.8442 3.66585 20.6206 3.66336 21.3333 3.61111Z" fill="var(--fill-0, #008F32)"/>
<path id="vector_2" fill-rule="evenodd" clip-rule="evenodd" d="M22.5353 4.41939C20.8827 8.01962 17.1996 8.3796 14.0423 8.3796C13.3493 8.3796 12.6853 8.36309 12.0704 8.35947L11.2752 11.4693C15.3473 8.14968 20.733 11.4411 20.1571 16.451C19.7694 19.8249 17.3639 22.0316 14.819 22.6662C12.0467 23.3575 8.97514 22.3227 7.59763 19.4976C7.45186 19.1988 7.19738 18.6012 7.09993 18.2811L10.0241 17.5306C10.0752 17.6989 10.163 17.8616 10.2552 18.0101C12.2126 21.167 16.1788 19.5882 16.6266 16.3137C17.0824 12.9825 12.4075 11.2075 10.2774 15.1009L7.6846 13.996L7.63991 13.9766L8.89058 8.95662C8.96749 8.60026 9.22761 7.60326 9.27191 7.43978C10.6857 2.24339 15.2571 2.16085 18.9246 2.14716C17.4082 1.51658 15.7451 1.16667 14 1.16667C6.91229 1.16667 1.16667 6.91229 1.16667 14C1.16667 21.0877 6.91229 26.8333 14 26.8333C21.0877 26.8333 26.8333 21.0877 26.8333 14C26.8333 10.19 25.1715 6.76975 22.5353 4.41939Z" fill="var(--fill-0, #EB2316)"/>
</g>
<defs>
<clipPath id="clip0_0_22">
<rect width="28" height="28" fill="white"/>
</clipPath>
</defs>
</svg>
