<svg preserveAspectRatio="none" width="100%" height="100%" overflow="visible" style="display: block;" viewBox="0 0 28 28" fill="none" xmlns="http://www.w3.org/2000/svg">
<g id="company logo">
<path id="vector" fill-rule="evenodd" clip-rule="evenodd" d="M20.5841 2.9166H7.41596C4.9414 2.9166 2.9167 4.9413 2.9167 7.41587V20.5841C2.9167 23.0586 4.9414 25.0833 7.41596 25.0833H20.5841C23.0587 25.0833 25.0834 23.0586 25.0834 20.5841V7.41587C25.0834 4.9413 23.0587 2.9166 20.5841 2.9166Z" fill="var(--fill-0, #043E44)"/>
<g id="vector_2">
<path fill-rule="evenodd" clip-rule="evenodd" d="M13.8493 10.8843L10.6458 14.0003L13.8493 17.1169C15.6188 18.8377 18.4869 18.8377 20.2557 17.1169C22.0258 15.3961 22.0258 12.605 20.2557 10.8843C18.4869 9.16213 15.6188 9.16213 13.8493 10.8843Z" fill="var(--fill-0, white)"/>
<path fill-rule="evenodd" clip-rule="evenodd" d="M7.91143 14.0003L4.81737 10.757C4.59034 10.5192 4.3433 10.3166 4.08331 10.1436V17.8566C4.3433 17.6836 4.59034 17.4809 4.81737 17.2429L7.91143 14.0003Z" fill="var(--fill-0, white)"/>
<path fill-rule="evenodd" clip-rule="evenodd" d="M12.5642 18.822L9.27514 15.6528L5.98561 18.822C4.88511 19.8818 4.45892 21.3519 4.69182 22.7271C5.32922 23.4539 6.28189 23.9167 7.34516 23.9167H13.4765C14.2991 22.2521 13.9954 20.1997 12.5642 18.822Z" fill="var(--fill-0, white)"/>
<path fill-rule="evenodd" clip-rule="evenodd" d="M5.73029 9.17883L9.12614 12.3473L12.5227 9.17883C13.9993 7.80124 14.3103 5.7478 13.4612 4.0834H7.13357C5.46084 4.0834 4.40258 5.4028 4.13799 6.16669C3.8734 6.93058 4.59539 8.12093 5.73029 9.17883Z" fill="var(--fill-0, white)"/>
</g>
</g>
</svg>
