<svg preserveAspectRatio="none" width="100%" height="100%" overflow="visible" style="display: block;" viewBox="0 0 28 28" fill="none" xmlns="http://www.w3.org/2000/svg">
<g id="company logo">
<path id="vector" fill-rule="evenodd" clip-rule="evenodd" d="M24.8398 5.51697C24.9431 5.70935 25.0361 5.90706 25.1184 6.10926C24.8434 6.31833 24.5032 6.42325 24.1582 6.40541C23.9601 6.41547 23.7621 6.38464 23.5765 6.31483C23.3909 6.24503 23.2216 6.13775 23.0794 5.99969C22.8067 5.68707 22.6571 5.28605 22.6585 4.87137V4.6848V4.41235V3.25442C23.585 3.7874 24.3414 4.57191 24.8398 5.51697V5.51697ZM6.25731 5.79535C5.93504 5.79535 5.62597 5.92327 5.39809 6.15098C5.17021 6.37869 5.04219 6.68752 5.04219 7.00955C5.04219 7.33157 5.17021 7.64041 5.39809 7.86812C5.62597 8.09582 5.93504 8.22375 6.25731 8.22375C6.57958 8.22375 6.88865 8.09582 7.11653 7.86812C7.34441 7.64041 7.47243 7.33157 7.47243 7.00955C7.47243 6.68752 7.34441 6.37869 7.11653 6.15098C6.88865 5.92327 6.57958 5.79535 6.25731 5.79535ZM3.82706 12.2602C4.02303 12.2507 4.21887 12.2815 4.40241 12.3508C4.58595 12.4201 4.75328 12.5264 4.894 12.663C5.1945 13.0092 5.34953 13.458 5.32671 13.9157L5.34449 14.5346V14.8308V15.0677V15.4675L5.32671 16.0124C5.34814 16.4639 5.19658 16.9065 4.90289 17.2503C4.76273 17.3879 4.59557 17.4949 4.41194 17.5648C4.22831 17.6346 4.0322 17.6657 3.83596 17.656C3.63785 17.6664 3.43974 17.6357 3.25408 17.5659C3.06842 17.4961 2.89923 17.3886 2.75716 17.2503C2.48511 16.9375 2.33654 16.5363 2.33928 16.122V15.9354V15.6629V14.2414V13.9779V13.9157C2.31947 13.4635 2.47078 13.0205 2.76309 12.6748C2.90403 12.5361 3.07196 12.4277 3.2565 12.3564C3.44104 12.285 3.63826 12.2523 3.83596 12.2602H3.82706ZM24.1493 12.2602C24.3468 12.2487 24.5445 12.2786 24.7298 12.348C24.915 12.4173 25.0838 12.5246 25.2251 12.663C25.5213 13.011 25.672 13.4596 25.6459 13.9157L25.6667 14.5346V14.8308V15.0677V15.4675L25.6489 16.0124C25.6688 16.4618 25.5174 16.9021 25.2251 17.2444C25.0857 17.3822 24.9191 17.4894 24.7359 17.5593C24.5527 17.6291 24.3569 17.66 24.1611 17.6501C23.963 17.6609 23.7648 17.6304 23.5791 17.5605C23.3933 17.4907 23.2242 17.383 23.0823 17.2444C22.8092 16.932 22.6596 16.5308 22.6615 16.116V15.9295V15.657V14.2414V13.9779V13.9157C22.6393 13.4632 22.7909 13.0193 23.0853 12.6748C23.226 12.5358 23.3939 12.4272 23.5785 12.3559C23.7631 12.2845 23.9604 12.252 24.1582 12.2602H24.1493ZM13.963 10.3353C12.7538 10.3353 11.7965 10.6363 11.0911 11.2385C10.3858 11.8407 10.0094 12.6985 9.96196 13.812V13.9482V14.3925V15.811V16.0361V16.0983C10.0034 17.2355 10.3739 18.0992 11.0734 18.6895C11.7728 19.2799 12.734 19.576 13.957 19.578C14.6576 19.5892 15.3535 19.4624 16.005 19.2048C16.5728 18.9848 17.0683 18.6117 17.4364 18.1269C17.7922 17.6434 17.9852 17.0596 17.9877 16.4596C17.9889 16.4233 17.9821 16.3873 17.9678 16.354C17.9534 16.3208 17.9319 16.2911 17.9047 16.2671C17.8725 16.2373 17.834 16.215 17.7921 16.2019H17.7506H15.8242C15.7487 16.2025 15.6752 16.2263 15.6138 16.27C15.5538 16.3239 15.5106 16.3938 15.4893 16.4714L15.4715 16.5336C15.3995 16.8795 15.2061 17.1884 14.9262 17.4043C14.6367 17.5862 14.2987 17.676 13.957 17.6619C13.0175 17.6619 12.5196 17.1555 12.4574 16.1456V15.965V15.6866V15.2158V14.579V14.0934V13.8772C12.489 12.7992 12.9899 12.2602 13.96 12.2602C14.3007 12.2444 14.6383 12.331 14.9291 12.509C15.2089 12.7326 15.4018 13.0468 15.4745 13.3974C15.499 13.4971 15.5502 13.5882 15.6227 13.661C15.667 13.696 15.7205 13.7176 15.7768 13.7232H15.8272H17.7536C17.8114 13.7153 17.8653 13.6894 17.9077 13.6491C17.9349 13.6251 17.9564 13.5955 17.9707 13.5622C17.9851 13.5289 17.9919 13.4929 17.9907 13.4566C17.9886 12.8565 17.7955 12.2726 17.4394 11.7893C17.0713 11.3045 16.5758 10.9314 16.0079 10.7114C15.3576 10.4532 14.6627 10.3254 13.963 10.3353ZM18.6664 23.4634V25.6549H18.2959H17.9018H17.2231C16.9667 25.6543 16.7201 25.557 16.5325 25.3824C16.4373 25.2751 16.3644 25.1499 16.3181 25.0142C16.2718 24.8784 16.253 24.7348 16.2628 24.5917C16.248 24.2905 16.3487 23.9951 16.5444 23.7655C16.705 23.5924 16.9252 23.4866 17.1608 23.4693H17.2468H18.6516L18.6664 23.4634ZM15.919 2.3334V7.93649C15.9308 8.00282 15.9629 8.06387 16.0109 8.11121C16.0489 8.14952 16.0957 8.17798 16.1472 8.19413H16.1858H16.2361H17.9966H18.0499C18.1188 8.18596 18.1833 8.15585 18.2337 8.10825C18.2753 8.07003 18.3051 8.0207 18.3196 7.9661V7.92464V2.34229H18.5004H18.8472L19.1732 2.3571L19.4696 2.37487C19.7155 2.39263 19.9408 2.41633 20.1512 2.44298V2.46963V2.6799V3.02639V4.6848V4.82991C20.1927 5.97699 20.5651 6.84568 21.2685 7.436C21.9719 8.02632 22.9312 8.32246 24.1463 8.32444C24.6285 8.32896 25.1094 8.27325 25.5778 8.1586C25.5778 8.29186 25.6015 8.43105 25.6104 8.57616L25.6282 8.87231V9.19511C25.6282 9.25137 25.6282 9.30764 25.6282 9.36391V9.71928C25.6282 9.8407 25.6282 9.96805 25.6282 10.0954V10.5189C25.1356 10.3797 24.6256 10.3119 24.1137 10.3175C22.9124 10.3175 21.9551 10.6235 21.2419 11.2356C20.8932 11.5464 20.6137 11.9267 20.4212 12.3522C20.2288 12.7776 20.1277 13.2386 20.1245 13.7054V13.9157V14.2622V15.9206V16.0657C20.166 17.2128 20.5385 18.0815 21.2419 18.6718C21.9452 19.2621 22.9045 19.5582 24.1196 19.5602C24.6141 19.5652 25.1072 19.5065 25.5867 19.3855C25.5657 20.3353 25.3561 21.2714 24.9702 22.1396L24.8902 22.3055L24.8013 22.4713C24.4159 23.1885 23.8858 23.818 23.2446 24.3201C22.6034 24.8221 21.8649 25.1859 21.0759 25.3884V21.8909C21.0697 21.8215 21.0393 21.7565 20.9899 21.7073C20.9509 21.6678 20.9017 21.6401 20.8477 21.6273L20.7795 21.6155H17.1164C16.5195 21.6192 15.93 21.7473 15.3856 21.9916C14.886 22.217 14.465 22.5861 14.1764 23.0518C13.8997 23.5216 13.7582 24.0586 13.7674 24.6036C13.7629 24.9652 13.8211 25.3249 13.9393 25.6667H9.94121H9.60038H9.2803H9.12619L8.82982 25.6519L8.55419 25.6342L8.29042 25.6164L8.04443 25.5897C7.76584 25.5601 7.51393 25.5246 7.28572 25.4831L7.09308 25.4446L6.91229 25.4032C6.85302 25.4032 6.79374 25.3736 6.7404 25.3558L6.57443 25.3084L6.3403 25.2314L6.19211 25.1751V25.0478C6.22372 23.9698 6.72459 23.4308 7.69471 23.4308C8.03593 23.4136 8.37421 23.5015 8.66385 23.6826L8.79129 23.7684C9.02282 23.9239 9.2196 24.1255 9.36921 24.3607L9.4196 24.4525C9.56482 24.725 9.71597 24.7487 9.81377 24.7487H9.92936C9.95479 24.7448 9.97967 24.7378 10.0034 24.728L10.0627 24.7013L10.1753 24.6421L10.3235 24.5621L10.5043 24.4585L10.8007 24.2837L11.0585 24.1238C11.165 24.0592 11.25 23.9645 11.3027 23.8518C11.3554 23.739 11.3736 23.6131 11.3549 23.4901C11.3223 23.1732 10.6051 22.4861 9.93825 22.0982L9.78413 22.0093L9.63595 21.9264C9.08941 21.6342 8.47754 21.4854 7.85772 21.494H7.72139H7.42502C6.47955 21.4938 5.56396 21.825 4.83769 22.4299C4.44752 22.7619 4.14863 23.188 3.96932 23.6678C3.65405 23.3206 3.38326 22.9356 3.16319 22.5217L3.07724 22.3558L2.99722 22.1545C2.60957 21.2868 2.39995 20.3503 2.38077 19.4003C2.86024 19.5213 3.35332 19.58 3.84781 19.575C5.0659 19.575 6.02021 19.2789 6.71965 18.6866C7.41909 18.0943 7.78659 17.2266 7.83105 16.0805V15.5593V15.2394V14.7508V14.2414V13.8653C7.79548 12.734 7.42008 11.8634 6.70483 11.2533C5.98959 10.6433 5.03725 10.3372 3.84781 10.3353C3.33608 10.3285 2.82603 10.3953 2.33335 10.5337V9.96805V9.64229V9.34614V9.04999L2.34817 8.77458L2.36595 8.51101V8.38663L2.3867 8.14675L2.41041 7.92168L2.44005 7.70549C2.44005 7.67292 2.44004 7.63738 2.45486 7.6048L2.48746 7.40638C2.48746 7.34123 2.50821 7.27904 2.52303 7.21685L2.55859 7.03916L2.60009 6.87036L2.64454 6.70748L2.66825 6.63048L2.71567 6.47945C2.71567 6.45279 2.73345 6.4291 2.73938 6.40541L2.79273 6.2603L2.84904 6.12111L2.87571 6.053L2.93795 5.91973L3.00019 5.78647L3.06539 5.65616L3.13059 5.52586C3.66287 4.52417 4.48363 3.70507 5.48675 3.17446L5.67939 3.07377L5.81275 3.01158L5.94316 2.94939L6.01132 2.91977L6.15062 2.86351L6.21878 2.83685L6.36401 2.78355L6.51219 2.7332L6.6663 2.68878L6.82931 2.64436L7.0012 2.6029L7.17903 2.5644L7.36574 2.52886L7.56431 2.49925L7.66508 2.48444L7.88143 2.45482L8.10963 2.43113L8.3497 2.4104L8.60161 2.38967L8.87131 2.37487H9.16768H9.46405H9.78117H11.263C11.2772 3.22773 11.1927 4.07937 11.0111 4.91284L10.9815 5.02833C10.7948 5.70355 10.4717 6.07965 10.0183 6.15665C9.95046 6.16486 9.88646 6.1924 9.8339 6.23599C9.78134 6.27958 9.74246 6.33737 9.7219 6.40245V6.44687V7.95722C9.73251 8.0295 9.76693 8.09619 9.8197 8.14675C9.84991 8.17866 9.88617 8.20425 9.92636 8.22204C9.96655 8.23984 10.0099 8.24948 10.0538 8.2504C11.0289 8.23263 11.7698 8.03125 12.2796 7.65811C12.8299 7.20958 13.202 6.57948 13.3287 5.88123C13.5218 4.90607 13.6152 3.91381 13.6073 2.91977V2.3334H15.919Z" fill="var(--fill-0, #FF5700)"/>
</g>
</svg>
