<svg preserveAspectRatio="none" width="100%" height="100%" overflow="visible" style="display: block;" viewBox="0 0 28 28" fill="none" xmlns="http://www.w3.org/2000/svg">
<g id="company logo">
<path id="vector" d="M18.6667 5.97059C18.6667 8.71569 16.0001 10.7745 14.0001 12.8333C12.0001 10.7745 9.33341 8.71569 9.33341 5.97059C9.33341 3.31746 11.4228 1.16667 14.0001 1.16667C16.5774 1.16667 18.6667 3.31746 18.6667 5.97059Z" fill="var(--fill-0, #005A28)"/>
<path id="vector_2" d="M5.97059 9.33355C8.71569 9.33355 10.7745 12.0002 12.8333 14.0002C10.7745 16.0002 8.71569 18.6669 5.97059 18.6669C3.31746 18.6669 1.16667 16.5775 1.16667 14.0002C1.16667 11.4229 3.31746 9.33355 5.97059 9.33355Z" fill="var(--fill-0, #AAE641)"/>
<path id="vector_3" d="M22.0294 9.33355C19.2843 9.33355 17.2255 12.0002 15.1667 14.0002C17.2255 16.0002 19.2843 18.6669 22.0294 18.6669C24.6825 18.6669 26.8333 16.5775 26.8333 14.0002C26.8333 11.4229 24.6825 9.33355 22.0294 9.33355Z" fill="var(--fill-0, #1EAF37)"/>
<path id="vector_4" d="M18.6667 22.0294C18.6667 19.2843 16.0001 17.2255 14.0001 15.1667C12.0001 17.2255 9.33341 19.2843 9.33341 22.0294C9.33341 24.6825 11.4228 26.8333 14.0001 26.8333C16.5774 26.8333 18.6667 24.6825 18.6667 22.0294Z" fill="var(--fill-0, #5FAF2D)"/>
</g>
</svg>
