<svg preserveAspectRatio="none" width="100%" height="100%" overflow="visible" style="display: block;" viewBox="0 0 16 16" fill="none" xmlns="http://www.w3.org/2000/svg">
<g id="map-pin">
<path id="vector" fill-rule="evenodd" clip-rule="evenodd" d="M8 1.83333C6.71812 1.83333 5.48874 2.34256 4.58232 3.24898C3.67589 4.15541 3.16667 5.38479 3.16667 6.66667C3.16667 8.16241 4.0058 9.75079 5.06587 11.1436C6.10468 12.5085 7.29649 13.6093 7.90914 14.1396C7.93611 14.1571 7.96766 14.1665 8 14.1665C8.03234 14.1665 8.06389 14.1571 8.09086 14.1396C8.70351 13.6093 9.89532 12.5085 10.9341 11.1436C11.9942 9.75079 12.8333 8.16241 12.8333 6.66667C12.8333 5.38479 12.3241 4.15541 11.4177 3.24898C10.5113 2.34256 9.28188 1.83333 8 1.83333ZM3.87521 2.54188C4.96917 1.44792 6.4529 0.833333 8 0.833333C9.5471 0.833333 11.0308 1.44792 12.1248 2.54188C13.2188 3.63584 13.8333 5.11957 13.8333 6.66667C13.8333 8.49959 12.8261 10.3089 11.7299 11.7492C10.622 13.2048 9.36003 14.3649 8.72743 14.9111C8.71892 14.9185 8.71016 14.9255 8.70117 14.9323C8.49901 15.0843 8.25293 15.1665 8 15.1665C7.74707 15.1665 7.50099 15.0843 7.29883 14.9323C7.28984 14.9255 7.28108 14.9185 7.27257 14.9111C6.63997 14.3649 5.37798 13.2048 4.27013 11.7492C3.17387 10.3089 2.16667 8.49959 2.16667 6.66667C2.16667 5.11957 2.78125 3.63584 3.87521 2.54188ZM8 5.16667C7.17157 5.16667 6.5 5.83824 6.5 6.66667C6.5 7.49509 7.17157 8.16667 8 8.16667C8.82843 8.16667 9.5 7.49509 9.5 6.66667C9.5 5.83824 8.82843 5.16667 8 5.16667ZM5.5 6.66667C5.5 5.28595 6.61929 4.16667 8 4.16667C9.38071 4.16667 10.5 5.28595 10.5 6.66667C10.5 8.04738 9.38071 9.16667 8 9.16667C6.61929 9.16667 5.5 8.04738 5.5 6.66667Z" fill="var(--fill-0, #6C737D)"/>
</g>
</svg>
