<svg preserveAspectRatio="none" width="100%" height="100%" overflow="visible" style="display: block;" viewBox="0 0 24 24" fill="none" xmlns="http://www.w3.org/2000/svg">
<g id="icon">
<path id="vector" fill-rule="evenodd" clip-rule="evenodd" d="M21.7803 2.21966C22.0045 2.44379 22.0635 2.78461 21.9278 3.07106L12.9278 22.0711C12.7922 22.3573 12.4913 22.5276 12.1761 22.4963C11.8609 22.4651 11.5992 22.2392 11.5224 21.9319L9.63153 14.3685L2.06809 12.4776C1.76077 12.4008 1.53486 12.1391 1.50365 11.8239C1.47243 11.5087 1.64264 11.2078 1.92893 11.0722L20.9289 2.07219C21.2154 1.9365 21.5562 1.99554 21.7803 2.21966ZM4.46501 11.5307L10.4319 13.0224C10.7006 13.0896 10.9104 13.2994 10.9776 13.5681L12.4693 19.535L19.6732 4.32678L4.46501 11.5307Z" fill="var(--fill-0, black)"/>
</g>
</svg>
