<svg preserveAspectRatio="none" width="100%" height="100%" overflow="visible" style="display: block;" viewBox="0 0 20 20" fill="none" xmlns="http://www.w3.org/2000/svg">
<g id="map">
<path id="vector" fill-rule="evenodd" clip-rule="evenodd" d="M8.125 3.51127V14.6586C8.26165 14.6973 8.39555 14.749 8.52486 14.8137L11.875 16.4887V5.34143C11.7383 5.30269 11.6044 5.251 11.4751 5.18634L8.125 3.51127ZM13.125 5.34143V16.4887L16.7598 14.6713C16.8304 14.636 16.875 14.5639 16.875 14.485V3.84836C16.875 3.69349 16.712 3.59276 16.5735 3.66202L13.5249 5.18634C13.3956 5.251 13.2617 5.30269 13.125 5.34143ZM6.875 14.6586V3.51127L3.24016 5.32869L2.96066 4.76967L3.24016 5.32869C3.16958 5.36398 3.125 5.43612 3.125 5.51503V16.1516C3.125 16.3065 3.28798 16.4072 3.4265 16.338L6.47514 14.8137C6.60445 14.749 6.73835 14.6973 6.875 14.6586ZM6.47514 2.31366C7.1203 1.99108 7.8797 1.99108 8.52486 2.31366L12.0342 4.06831C12.3274 4.21493 12.6726 4.21493 12.9658 4.0683L16.0145 2.54399C16.9841 2.05916 18.125 2.76426 18.125 3.84836V14.485C18.125 15.0373 17.8129 15.5423 17.3189 15.7893L13.5249 17.6863C12.8797 18.0089 12.1203 18.0089 11.4751 17.6863L7.96585 15.9317C7.67259 15.7851 7.32741 15.7851 7.03415 15.9317L3.98552 17.456C3.01587 17.9408 1.875 17.2357 1.875 16.1516V5.51503C1.875 4.96265 2.18709 4.45769 2.68115 4.21066L6.47514 2.31366L6.75464 2.87268L6.47514 2.31366Z" fill="var(--fill-0, black)"/>
</g>
</svg>
