<svg preserveAspectRatio="none" width="100%" height="100%" overflow="visible" style="display: block;" viewBox="0 0 14 18" fill="none" xmlns="http://www.w3.org/2000/svg">
<g id="metro icon">
<path id="Vector" d="M7.00076 9.69983L9.98084 4.85547L14 13.8551L11.3165 13.8551C10.9222 12.9806 10.4909 12.0889 10.0834 11.2176C9.88074 10.784 9.67631 10.3296 9.46605 9.90117L7.00081 13.3249C6.92986 13.2378 6.83933 13.104 6.7724 13.011L6.33417 12.4022L5.16402 10.776C4.95964 10.492 4.74373 10.1796 4.5328 9.90258C4.31959 10.333 4.10782 10.8087 3.90252 11.2475L2.68268 13.8555L0 13.8548C0.199873 13.3917 0.416481 12.9213 0.622523 12.46L1.84396 9.72528L4.01673 4.86339C4.05446 4.89264 4.58705 5.77794 4.66286 5.90121L7.00076 9.69983Z" fill="var(--fill-0, black)"/>
</g>
</svg>
