<svg preserveAspectRatio="none" width="100%" height="100%" overflow="visible" style="display: block;" viewBox="0 0 14 18" fill="none" xmlns="http://www.w3.org/2000/svg">
<g id="metro icon">
<path id="Vector" d="M9.12631 3.94434C9.66034 4.15789 10.1632 4.44166 10.6214 4.78809L10.8148 4.94043L11.0482 5.14062C12.1904 6.17087 12.9747 7.61548 13.1244 9.16113C13.3041 11.0175 12.6624 12.5983 11.5179 13.9961L11.4574 14.0693L8.58822 14.0703L8.50229 13.6895C8.63669 13.6255 8.76574 13.5641 8.89096 13.498C10.1023 12.8587 11.0157 11.8423 11.4163 10.5332C11.7565 9.42414 11.6453 8.22568 11.1068 7.19824C10.997 6.9915 10.8241 6.71049 10.6224 6.46094C10.4151 6.20453 10.1975 6.00618 10.0052 5.93066C9.97613 5.91936 9.92707 5.913 9.86654 5.91992C9.80686 5.9268 9.75156 5.94545 9.7142 5.9668C9.6424 6.00802 9.58835 6.07597 9.54233 6.17773C9.49372 6.2853 9.46525 6.40269 9.42416 6.54004L9.29819 6.96387L9.29721 6.9668L7.75424 12.0693C7.57389 12.666 7.3877 13.3333 7.18881 13.9287L6.99545 14.5078L6.80893 13.9268C6.59592 13.2629 6.39601 12.5705 6.19565 11.9072L5.08627 8.23926C4.88598 7.57702 4.69102 6.91852 4.48569 6.25879C4.44028 6.11312 4.36433 6.01583 4.28061 5.96484C4.20138 5.91664 4.09472 5.8971 3.95346 5.94434C3.80853 5.99455 3.69096 6.11623 3.5433 6.27539C2.42476 7.48098 2.09767 9.21983 2.65854 10.7656C3.0301 11.7896 3.73263 12.6351 4.65072 13.2305C4.92938 13.4112 5.1897 13.5426 5.49936 13.6904L5.41049 14.0713C4.50589 14.0567 3.55005 14.0663 2.63901 14.0713H2.54721L2.48666 14.002C2.01491 13.4609 1.57718 12.7382 1.306 12.0791C0.690356 10.6006 0.690281 8.9365 1.306 7.45801C1.97271 5.85961 3.25356 4.59538 4.86068 3.9502L4.97787 3.90332L5.07065 3.98828C5.09345 4.00917 5.1058 4.0309 5.10776 4.03418C5.11221 4.04165 5.11492 4.04838 5.11654 4.05176C5.11989 4.05875 5.12298 4.0649 5.12436 4.06836C5.12734 4.0759 5.13063 4.08454 5.13315 4.0918C5.1384 4.10697 5.14499 4.12726 5.15268 4.15137C5.16842 4.20075 5.19018 4.27173 5.21713 4.36035C5.27112 4.53786 5.34689 4.79053 5.43686 5.09375C5.61682 5.70027 5.85528 6.51292 6.09897 7.34375C6.43778 8.49893 6.78701 9.68858 7.00033 10.4141C7.01781 10.3517 7.03559 10.2908 7.05209 10.2344L8.85971 4.07324L8.92123 3.8623L9.12631 3.94434Z" fill="var(--fill-0, black)"/>
</g>
</svg>
