<svg preserveAspectRatio="none" width="100%" height="100%" overflow="visible" style="display: block;" viewBox="0 0 14 18" fill="none" xmlns="http://www.w3.org/2000/svg">
<g id="metro icon" clip-path="url(#clip0_0_14)">
<path id="Vector" d="M6.86577 9.42218C7.17552 8.94747 7.48649 8.4107 7.78377 7.92562L9.62751 4.91211C9.82141 5.33387 10.0149 5.82291 10.1978 6.25469L11.2939 8.84062L12.3706 11.3788C12.5415 11.782 12.7498 12.2396 12.9055 12.6423L13.8672 12.6414L13.8677 13.8137L8.91435 13.8138C8.9073 13.43 8.91313 13.0255 8.91282 12.6403L9.64631 12.6414C9.60218 12.5048 9.54007 12.351 9.48868 12.2149L9.13706 11.2765C9.07249 11.1039 8.99414 10.9083 8.93816 10.7349C8.85244 10.8572 8.76582 10.9926 8.68583 11.1188C8.0926 12.0548 7.45717 12.9746 6.86763 13.9121C6.72923 13.671 6.49912 13.3421 6.34091 13.0994L5.29392 11.4917C5.16722 11.2965 4.90366 10.9191 4.80348 10.7306C4.57554 11.3678 4.3175 12.0041 4.08989 12.6425C4.32395 12.6357 4.58966 12.6411 4.82618 12.6408L4.82604 13.8136L-0.126558 13.8137C-0.138715 13.448 -0.127886 13.0109 -0.127794 12.6405C0.190856 12.6393 0.509507 12.6402 0.828137 12.6429C1.06749 12.0984 1.29812 11.5406 1.53018 10.9924L2.6371 8.38351L3.58718 6.14398C3.75775 5.74187 3.94209 5.32372 4.10366 4.92023C4.15104 4.95599 4.66252 5.81442 4.72641 5.91898L6.17844 8.29488C6.39142 8.6438 6.67504 9.07332 6.86577 9.42218Z" fill="var(--fill-0, black)"/>
</g>
<defs>
<clipPath id="clip0_0_14">
<rect width="14" height="18" fill="white"/>
</clipPath>
</defs>
</svg>
