<svg preserveAspectRatio="none" width="100%" height="100%" overflow="visible" style="display: block;" viewBox="0 0 24 24" fill="none" xmlns="http://www.w3.org/2000/svg">
<g id="icon/all">
<path id="Vector" d="M3.75 6.25005C3.75 5.65331 3.98705 5.08102 4.40901 4.65906C4.83097 4.2371 5.40326 4.00005 6 4.00005H8.25C8.84674 4.00005 9.41903 4.2371 9.84099 4.65906C10.2629 5.08102 10.5 5.65331 10.5 6.25005V8.50005C10.5 9.09679 10.2629 9.66908 9.84099 10.091C9.41903 10.513 8.84674 10.75 8.25 10.75H6C5.40326 10.75 4.83097 10.513 4.40901 10.091C3.98705 9.66908 3.75 9.09679 3.75 8.50005V6.25005ZM3.75 16C3.75 15.4033 3.98705 14.831 4.40901 14.4091C4.83097 13.9871 5.40326 13.75 6 13.75H8.25C8.84674 13.75 9.41903 13.9871 9.84099 14.4091C10.2629 14.831 10.5 15.4033 10.5 16V18.25C10.5 18.8468 10.2629 19.4191 9.84099 19.841C9.41903 20.263 8.84674 20.5 8.25 20.5H6C5.40326 20.5 4.83097 20.263 4.40901 19.841C3.98705 19.4191 3.75 18.8468 3.75 18.25V16ZM13.5 6.25005C13.5 5.65331 13.7371 5.08102 14.159 4.65906C14.581 4.2371 15.1533 4.00005 15.75 4.00005H18C18.5967 4.00005 19.169 4.2371 19.591 4.65906C20.0129 5.08102 20.25 5.65331 20.25 6.25005V8.50005C20.25 9.09679 20.0129 9.66908 19.591 10.091C19.169 10.513 18.5967 10.75 18 10.75H15.75C15.1533 10.75 14.581 10.513 14.159 10.091C13.7371 9.66908 13.5 9.09679 13.5 8.50005V6.25005ZM13.5 16C13.5 15.4033 13.7371 14.831 14.159 14.4091C14.581 13.9871 15.1533 13.75 15.75 13.75H18C18.5967 13.75 19.169 13.9871 19.591 14.4091C20.0129 14.831 20.25 15.4033 20.25 16V18.25C20.25 18.8468 20.0129 19.4191 19.591 19.841C19.169 20.263 18.5967 20.5 18 20.5H15.75C15.1533 20.5 14.581 20.263 14.159 19.841C13.7371 19.4191 13.5 18.8468 13.5 18.25V16Z" stroke="var(--stroke-0, black)" stroke-width="1.5" stroke-linecap="round" stroke-linejoin="round"/>
</g>
</svg>
