<svg preserveAspectRatio="none" width="100%" height="100%" overflow="visible" style="display: block;" viewBox="0 0 16.5 19.5" fill="none" xmlns="http://www.w3.org/2000/svg">
<g id="Group 2087329499">
<path id="Vector" d="M15.25 15.3462C15.6642 15.3462 16 15.0104 16 14.5962C16 14.1819 15.6642 13.8462 15.25 13.8462V14.5962V15.3462ZM1.25 13.8462C0.835786 13.8462 0.5 14.1819 0.5 14.5962C0.5 15.0104 0.835786 15.3462 1.25 15.3462V14.5962V13.8462ZM11.25 19.5C11.6642 19.5 12 19.1642 12 18.75C12 18.3358 11.6642 18 11.25 18V18.75V19.5ZM1.25 18C0.835786 18 0.5 18.3358 0.5 18.75C0.5 19.1642 0.835786 19.5 1.25 19.5V18.75V18ZM15.25 14.5962V13.8462H1.25V14.5962V15.3462H15.25V14.5962ZM11.25 18.75V18H1.25V18.75V19.5H11.25V18.75ZM2.75 0.75V1.5H13.75V0.75V0H2.75V0.75ZM15.75 2.75H15V8.44231H15.75H16.5V2.75H15.75ZM13.75 10.4423V9.69231H2.75V10.4423V11.1923H13.75V10.4423ZM0.75 8.44231H1.5V2.75H0.75H0V8.44231H0.75ZM2.75 10.4423V9.69231C2.05964 9.69231 1.5 9.13266 1.5 8.44231H0.75H0C0 9.96109 1.23122 11.1923 2.75 11.1923V10.4423ZM15.75 8.44231H15C15 9.13267 14.4404 9.69231 13.75 9.69231V10.4423V11.1923C15.2688 11.1923 16.5 9.96109 16.5 8.44231H15.75ZM13.75 0.75V1.5C14.4404 1.5 15 2.05964 15 2.75H15.75H16.5C16.5 1.23122 15.2688 0 13.75 0V0.75ZM2.75 0.75V0C1.23122 0 0 1.23121 0 2.75H0.75H1.5C1.5 2.05964 2.05964 1.5 2.75 1.5V0.75Z" fill="var(--stroke-0, black)"/>
</g>
</svg>
