<svg preserveAspectRatio="none" width="100%" height="100%" overflow="visible" style="display: block;" viewBox="0 0 24 24" fill="none" xmlns="http://www.w3.org/2000/svg">
<g id="icon/sfera ava">
<rect id="bg" x="1.75" y="1.75" width="20.5" height="20.5" rx="10.25" stroke="var(--stroke-0, black)" stroke-width="1.5"/>
<path id="Union (Stroke)" d="M22.1387 8.97283C21.2294 8.97283 20.5471 9.12493 20.04 9.36511L20.0329 9.3685L20.0257 9.37181C19.51 9.6093 19.1607 9.92172 18.9205 10.3014C18.6947 10.6638 18.5522 11.1346 18.5522 11.774C18.5522 12.3971 18.6919 12.872 18.9232 13.2509C19.1646 13.6308 19.5161 13.9482 20.0328 14.1943C20.5432 14.4278 21.2287 14.5752 22.1387 14.5752" stroke="var(--stroke-0, black)" stroke-width="1.5"/>
<path id="Vector (Stroke)" d="M15.6459 9.79314C15.5432 9.62672 15.4259 9.46761 15.2932 9.31718C14.8774 8.83583 14.3539 8.49933 13.7721 8.28692C13.1916 8.06157 12.5636 7.97069 11.9218 7.97069C11.1762 7.97069 10.4499 8.10539 9.7909 8.43342C9.12727 8.75868 8.59481 9.25473 8.22982 9.90175C7.86531 10.5479 7.7147 11.2661 7.7147 12C7.7147 12.7339 7.86531 13.452 8.22982 14.0982L8.23385 14.1054L8.23796 14.1125C8.60356 14.744 9.12899 15.2277 9.77181 15.5569L9.77815 15.5602L9.78451 15.5634C10.4452 15.8937 11.1738 16.0293 11.9218 16.0293C12.5519 16.0293 13.1643 15.9512 13.7298 15.7577L13.7403 15.7542L13.7506 15.7505C14.3325 15.5416 14.8618 15.2127 15.2845 14.7371L15.2932 14.7273L15.3018 14.7172C15.4401 14.556 15.561 14.3853 15.6657 14.2068" stroke="var(--stroke-0, black)" stroke-width="1.5"/>
</g>
</svg>
