<svg preserveAspectRatio="none" width="100%" height="100%" overflow="visible" style="display: block;" viewBox="0 0 22.1273 21.2163" fill="none" xmlns="http://www.w3.org/2000/svg">
<path id="vector" fill-rule="evenodd" clip-rule="evenodd" d="M9.91471 0.757601C10.3476 -0.252532 11.7797 -0.252536 12.2126 0.7576L14.3011 5.63084C14.476 6.03899 14.8544 6.32371 15.295 6.37879L21.0309 7.09577C22.1093 7.23058 22.5138 8.58245 21.6867 9.28745L17.4974 12.8581C17.1349 13.167 16.9795 13.6551 17.0966 14.1167L18.5012 19.6552C18.7723 20.7243 17.627 21.595 16.6694 21.0478L11.6838 18.1989C11.2995 17.9793 10.8278 17.9793 10.4435 18.1989L5.45787 21.0478C4.50029 21.595 3.35493 20.7243 3.62605 19.6552L5.03069 14.1167C5.14776 13.6551 4.99235 13.167 4.62989 12.8581L0.440588 9.28745C-0.386562 8.58245 0.0179567 7.23058 1.09639 7.09577L6.83229 6.37879C7.27292 6.32371 7.65125 6.03899 7.82618 5.63084L9.91471 0.757601ZM11.0636 1.88465L9.20489 6.22172C8.82006 7.11966 7.98773 7.74603 7.01834 7.8672L1.84533 8.51383L5.6029 11.7165C6.40031 12.3962 6.74222 13.4699 6.48466 14.4855L5.22472 19.4534L9.69925 16.8965C10.5447 16.4134 11.5826 16.4134 12.428 16.8965L16.9026 19.4534L15.6426 14.4855C15.3851 13.4699 15.727 12.3962 16.5244 11.7165L20.2819 8.51383L15.1089 7.8672C14.1395 7.74603 13.3072 7.11966 12.9224 6.22172L11.0636 1.88465Z" fill="black"/>
</svg>
