<svg width="24" height="24" viewBox="0 0 24 24" fill="none" xmlns="http://www.w3.org/2000/svg">
<path d="M10.25 8.80371C10.2502 8.38971 10.5859 8.05371 11 8.05371C11.4141 8.05371 11.7498 8.38971 11.75 8.80371V10.9346L11.9932 10.6807L12.0156 10.6582L12.2695 10.4287C12.8773 9.91061 13.5869 9.52313 14.3545 9.29395C15.2318 9.03204 16.1597 8.98361 17.0596 9.15234C17.9593 9.32108 18.8055 9.70282 19.5283 10.2646C20.1608 10.7564 20.6827 11.374 21.0615 12.0771L21.2148 12.3838L21.2441 12.4551C21.3682 12.8142 21.2027 13.2165 20.8506 13.3799C20.4985 13.5431 20.0847 13.4097 19.8906 13.083L19.8545 13.0146L19.7412 12.7881C19.4613 12.2687 19.0756 11.8125 18.6084 11.4492C18.0742 11.0339 17.4483 10.7517 16.7832 10.627C16.1181 10.5023 15.4326 10.5379 14.7842 10.7314C14.1387 10.9241 13.5482 11.2678 13.0615 11.7334L12.7559 12.0537H15L15.0771 12.0576C15.455 12.0962 15.7498 12.4157 15.75 12.8037C15.75 13.1919 15.4551 13.5122 15.0771 13.5508L15 13.5537H11C10.5858 13.5537 10.25 13.2179 10.25 12.8037V8.80371ZM20.25 8.5V6C20.25 5.66848 20.1182 5.35063 19.8838 5.11621C19.6788 4.9112 19.41 4.78436 19.124 4.75586L19 4.75H16.75V6C16.75 6.41421 16.4142 6.75 16 6.75C15.5858 6.75 15.25 6.41421 15.25 6V4.75H8.75V6C8.75 6.41421 8.41421 6.75 8 6.75C7.58579 6.75 7.25 6.41421 7.25 6V4.75H5C4.66848 4.75 4.35063 4.88179 4.11621 5.11621C3.88179 5.35063 3.75 5.66848 3.75 6V8.05371H7L7.07715 8.05762C7.45499 8.0962 7.74977 8.41573 7.75 8.80371C7.75 9.1919 7.45514 9.51218 7.07715 9.55078L7 9.55371H3.75V18.8037C3.75 19.1352 3.88179 19.4541 4.11621 19.6885C4.35061 19.9227 4.6686 20.0537 5 20.0537H9.2998C9.71387 20.0537 10.0496 20.3897 10.0498 20.8037C10.0498 21.2179 9.71402 21.5537 9.2998 21.5537H5C4.27078 21.5537 3.57136 21.2646 3.05566 20.749C2.53994 20.2333 2.25 19.5331 2.25 18.8037V6C2.25 5.27065 2.53994 4.57139 3.05566 4.05566C3.57139 3.53994 4.27065 3.25 5 3.25H7.25V2C7.25 1.58579 7.58579 1.25 8 1.25C8.41421 1.25 8.75 1.58579 8.75 2V3.25H15.25V2C15.25 1.58579 15.5858 1.25 16 1.25C16.4142 1.25 16.75 1.58579 16.75 2V3.25H19L19.2715 3.26367C19.9011 3.32612 20.493 3.60433 20.9443 4.05566C21.4601 4.57139 21.75 5.27065 21.75 6V8.5C21.75 8.91421 21.4142 9.25 21 9.25C20.5858 9.25 20.25 8.91421 20.25 8.5ZM21.75 20.8037C21.75 21.2179 21.4142 21.5537 21 21.5537C20.5858 21.5537 20.25 21.2179 20.25 20.8037V18.6729L20.0068 18.9277L19.9844 18.9502C19.3244 19.5844 18.5225 20.0516 17.6455 20.3135C16.7682 20.5754 15.8403 20.6248 14.9404 20.4561C14.0407 20.2873 13.1945 19.9056 12.4717 19.3438C11.8392 18.8521 11.3173 18.2343 10.9385 17.5312L10.7852 17.2246L10.7559 17.1533C10.6317 16.7942 10.7973 16.3919 11.1494 16.2285C11.5015 16.0652 11.9153 16.1987 12.1094 16.5254L12.1455 16.5938L12.2588 16.8203C12.5387 17.3397 12.9244 17.7959 13.3916 18.1592C13.9258 18.5745 14.5517 18.8567 15.2168 18.9814C15.8819 19.1061 16.5674 19.0705 17.2158 18.877C17.8613 18.6843 18.4509 18.3396 18.9375 17.874L19.2451 17.5537H17C16.5858 17.5537 16.25 17.2179 16.25 16.8037C16.2502 16.3897 16.5859 16.0537 17 16.0537H21C21.4141 16.0537 21.7498 16.3897 21.75 16.8037V20.8037Z" fill="black"/>
</svg>
