<svg preserveAspectRatio="none" width="100%" height="100%" overflow="visible" style="display: block;" viewBox="0 0 24 24" fill="none" xmlns="http://www.w3.org/2000/svg">
<g id="help">
<g id="vector">
<path d="M12.0869 16.2539C12.465 16.2924 12.7598 16.6118 12.7598 17C12.7598 17.3882 12.465 17.7076 12.0869 17.7461L12.0098 17.75H12C11.5858 17.75 11.25 17.4142 11.25 17C11.25 16.5858 11.5858 16.25 12 16.25H12.0098L12.0869 16.2539Z" fill="var(--fill-0, #5233F2)"/>
<path d="M10.0195 6.7627C10.783 6.31401 11.6809 6.15015 12.5537 6.2998C13.4265 6.44951 14.2187 6.90266 14.7891 7.58008C15.3591 8.2573 15.671 9.1148 15.6699 10L15.6582 10.2568C15.5412 11.5147 14.5815 12.377 13.8359 12.874C13.4155 13.1543 13.0004 13.3616 12.6934 13.498C12.5388 13.5667 12.4084 13.6189 12.3154 13.6543C12.2691 13.6719 12.2319 13.6858 12.2051 13.6953C12.1918 13.7 12.1808 13.7033 12.1729 13.7061C12.169 13.7074 12.1656 13.7091 12.1631 13.71C12.1618 13.7104 12.1601 13.7106 12.1592 13.7109H12.1572C11.7643 13.8419 11.339 13.6302 11.208 13.2373C11.0852 12.8689 11.2647 12.4724 11.6113 12.3164L11.6826 12.2881H11.6846C11.6879 12.2869 11.6937 12.2842 11.7021 12.2812C11.7192 12.2752 11.7467 12.2655 11.7822 12.252C11.8533 12.2249 11.9576 12.1831 12.084 12.127C12.3394 12.0134 12.6744 11.8456 13.0039 11.626C13.7086 11.1562 14.1699 10.6019 14.1699 10L14.1611 9.80078C14.1212 9.34087 13.9409 8.90254 13.6416 8.54688C13.2995 8.14049 12.8243 7.86823 12.3008 7.77832C11.7772 7.68851 11.2383 7.78655 10.7803 8.05566C10.3222 8.32489 9.97418 8.74777 9.79785 9.24902L9.76855 9.32031C9.60675 9.66416 9.20705 9.83586 8.84082 9.70703C8.45035 9.56942 8.24541 9.14158 8.38281 8.75098L8.50586 8.44434C8.82414 7.74378 9.35161 7.15535 10.0195 6.7627Z" fill="var(--fill-0, #5233F2)"/>
<path fill-rule="evenodd" clip-rule="evenodd" d="M12 1.25C17.9371 1.25 22.75 6.06294 22.75 12C22.75 17.9371 17.9371 22.75 12 22.75C6.06294 22.75 1.25 17.9371 1.25 12C1.25 6.06294 6.06294 1.25 12 1.25ZM12 2.75C6.89137 2.75 2.75 6.89137 2.75 12C2.75 17.1086 6.89137 21.25 12 21.25C17.1086 21.25 21.25 17.1086 21.25 12C21.25 6.89137 17.1086 2.75 12 2.75Z" fill="var(--fill-0, #5233F2)"/>
</g>
</g>
</svg>
