<svg preserveAspectRatio="none" width="100%" height="100%" overflow="visible" style="display: block;" viewBox="0 0 14.7515 14.1442" fill="none" xmlns="http://www.w3.org/2000/svg">
<path fill-rule="evenodd" clip-rule="evenodd" d="M6.6098 0.505067C6.89841 -0.168354 7.8531 -0.168357 8.14171 0.505067L9.53407 3.75389C9.65068 4.026 9.9029 4.2158 10.1967 4.25252L14.0206 4.73052C14.7395 4.82039 15.0092 5.72164 14.4578 6.19163L11.6649 8.57207C11.4233 8.77802 11.3197 9.10339 11.3977 9.41115L12.3341 13.1035C12.5149 13.8162 11.7513 14.3967 11.1129 14.0319L7.78921 12.1326C7.53301 11.9862 7.2185 11.9862 6.96231 12.1326L3.63858 14.0319C3.00019 14.3967 2.23662 13.8162 2.41737 13.1035L3.35379 9.41115C3.43184 9.10339 3.32823 8.77802 3.08659 8.57207L0.293726 6.19163C-0.257708 5.72163 0.0119712 4.82038 0.730927 4.73052L4.55486 4.25252C4.84861 4.2158 5.10083 4.026 5.21745 3.75389L6.6098 0.505067ZM7.37576 1.25643L6.1366 4.14781C5.88004 4.74644 5.32515 5.16402 4.67889 5.2448L1.23022 5.67589L3.73527 7.81101C4.26687 8.2641 4.49482 8.97992 4.3231 9.65698L3.48315 12.9689L6.46617 11.2644C7.0298 10.9423 7.72172 10.9423 8.28535 11.2644L11.2684 12.9689L10.4284 9.65698C10.2567 8.97992 10.4846 8.2641 11.0162 7.81101L13.5213 5.67589L10.0726 5.2448C9.42636 5.16402 8.87148 4.74644 8.61492 4.14781L7.37576 1.25643Z" fill="#5233F2"/>
</svg>
